<?xml version="1.0" standalone="no"?>
<!DOCTYPE svg PUBLIC "-//W3C//DTD SVG 20010904//EN"
 "http://www.w3.org/TR/2001/REC-SVG-20010904/DTD/svg10.dtd">
<svg version="1.0" xmlns="http://www.w3.org/2000/svg"
 width="640.000000pt" height="640.000000pt" viewBox="0 0 640.000000 640.000000"
 preserveAspectRatio="xMidYMid meet">
<metadata>
Created by potrace 1.11, written by Peter Selinger 2001-2013
</metadata>
<g transform="translate(0.000000,640.000000) scale(0.100000,-0.100000)"
fill="#000000" stroke="none">
<path d="M1230 6389 c-204 -23 -436 -109 -610 -224 -340 -227 -565 -598 -609
-1007 -15 -135 -15 -3781 0 -3916 44 -410 269 -780 609 -1007 180 -119 405
-201 622 -224 135 -15 3781 -15 3916 0 217 23 442 105 622 224 340 227 565
598 609 1007 15 135 15 3781 0 3916 -44 410 -268 780 -611 1008 -178 119 -402
200 -620 223 -118 13 -3814 13 -3928 0z m2255 -299 c933 -86 1765 -574 2275
-1335 232 -347 382 -738 448 -1168 24 -159 24 -615 0 -774 -133 -874 -636
-1616 -1409 -2077 -627 -375 -1385 -516 -2119 -395 -837 139 -1574 610 -2040
1304 -232 347 -382 738 -448 1168 -24 159 -24 615 0 774 133 874 636 1616
1409 2077 384 230 847 382 1294 425 130 12 461 13 590 1z"/>
<path d="M1132 4528 l-371 -273 0 -1277 -1 -1278 374 0 374 0 7 495 7 495 554
0 554 0 0 -495 0 -495 375 0 375 0 0 1265 0 1265 370 0 370 0 0 -1265 0 -1265
405 0 405 0 0 1265 0 1265 370 0 370 0 0 285 0 285 -1150 0 -1150 0 -352 -261
c-194 -143 -361 -270 -370 -281 -16 -18 -18 -50 -18 -349 l0 -329 -555 0 -555
0 0 610 c0 336 -4 610 -8 610 -5 0 -175 -123 -380 -272z"/>
</g>
</svg>
